<?xml version="1.0" encoding="utf-8"?>
<!-- Generator: Adobe Illustrator 13.0.0, SVG Export Plug-In . SVG Version: 6.00 Build 14948)  -->
<!DOCTYPE svg [
	<!ENTITY ns_flows "http://ns.adobe.com/Flows/1.0/">
	<!ENTITY ns_extend "http://ns.adobe.com/Extensibility/1.0/">
	<!ENTITY ns_ai "http://ns.adobe.com/AdobeIllustrator/10.0/">
	<!ENTITY ns_graphs "http://ns.adobe.com/Graphs/1.0/">
]>
<svg version="1.2" baseProfile="tiny" id="Layer_1" xmlns:x="&ns_extend;" xmlns:i="&ns_ai;" xmlns:graph="&ns_graphs;"
	 xmlns="http://www.w3.org/2000/svg" xmlns:xlink="http://www.w3.org/1999/xlink" xmlns:a="http://ns.adobe.com/AdobeSVGViewerExtensions/3.0/"
	 x="0px" y="0px" width="321.388px" height="171.985px" viewBox="-15 -25 321.388 171.985" xml:space="preserve">
<g>
	<ellipse fill="#F7FCFE" stroke="#E44145" cx="139.447" cy="57.957" rx="153.947" ry="82.457"/>
	<text transform="matrix(1.1938 0 0 1 46.0273 113.4939)" fill="#E44145" font-family="'MyriadPro-BoldCond'" font-size="133.9664">Ж</text>
	
		<text transform="matrix(1.1938 0 0 1 160.0562 113.4939)" fill="#E44145" font-family="'MyriadPro-BoldCond'" font-size="133.9664">А</text>
	
		<text transform="matrix(1.1938 0 0 1 233.3032 113.4939)" fill="#E44145" font-family="'MyriadPro-BoldCond'" font-size="133.9664">Р</text>
	
		<text transform="matrix(1.1938 0 0 1 46.0273 113.4939)" fill="none" stroke="#E44145" font-family="'MyriadPro-BoldCond'" font-size="133.9664">Ж</text>
	
		<text transform="matrix(1.1938 0 0 1 160.0562 113.4939)" fill="none" stroke="#E44145" font-family="'MyriadPro-BoldCond'" font-size="133.9664">А</text>
	
		<text transform="matrix(1.1938 0 0 1 233.3032 113.4939)" fill="none" stroke="#E44145" font-family="'MyriadPro-BoldCond'" font-size="133.9664">Р</text>
	<text transform="matrix(0.9231 0 0 1 112.6924 17.9216)" font-family="'MyriadPro-Regular'" font-size="44.4594">П</text>
	<text transform="matrix(0.9231 0 0 1 138.917 17.9216)" font-family="'MyriadPro-Regular'" font-size="44.4594">е</text>
	<text transform="matrix(0.9231 0 0 1 159.314 17.9216)" font-family="'MyriadPro-Regular'" font-size="44.4594">ђ</text>
	<text transform="matrix(0.9231 0 0 1 182.1733 17.9216)" font-family="'MyriadPro-Regular'" font-size="44.4594">а</text>
	
		<text transform="matrix(0.9231 0 0 1 112.6924 17.9216)" fill="none" stroke="#E44145" font-family="'MyriadPro-Regular'" font-size="44.4594">П</text>
	
		<text transform="matrix(0.9231 0 0 1 138.917 17.9216)" fill="none" stroke="#E44145" font-family="'MyriadPro-Regular'" font-size="44.4594">е</text>
	
		<text transform="matrix(0.9231 0 0 1 159.314 17.9216)" fill="none" stroke="#E44145" font-family="'MyriadPro-Regular'" font-size="44.4594">ђ</text>
	
		<text transform="matrix(0.9231 0 0 1 182.1733 17.9216)" fill="none" stroke="#E44145" font-family="'MyriadPro-Regular'" font-size="44.4594">а</text>
</g>
</svg>
